<svg class="svgImageIcon" id="ac8eb927-51e5-4b7e-8648-62b56dbf54cd" data-name="Layer 1" xmlns="http://www.w3.org/2000/svg" viewBox="0 0 32 32"><path d="M8,14h2v2H8Zm7,2h2V14H15Zm7,0h2V14H22ZM8,20h2V18H8Zm7,0h2V18H15Zm7,0h2V18H22ZM8,24h2V22H8Zm7,0h2V22H15Zm7,0h2V22H22ZM10,5V2H8V6h2ZM30,6V27a3,3,0,0,1-3,3H5a3,3,0,0,1-3-3V6A3,3,0,0,1,5,3H6V5H5A1,1,0,0,0,4,6V8H28V6a1,1,0,0,0-1-1H26V3h1A3,3,0,0,1,30,6ZM28,27V10H4V27a1,1,0,0,0,1,1H27A1,1,0,0,0,28,27ZM20,3H12V5h8Zm4,2V2H22V6h2Z" fill="#0c2074"></path></svg>